<?xml version="1.0" encoding="UTF-8" standalone="no"?>
<!DOCTYPE svg PUBLIC "-//W3C//DTD SVG 1.1//EN"
 "http://www.w3.org/Graphics/SVG/1.1/DTD/svg11.dtd">
<!-- Generated by graphviz version 2.47.1 (20210417.1919)
 -->
<!-- Pages: 1 -->
<svg width="762pt" height="476pt"
 viewBox="0.00 0.00 761.84 476.00" xmlns="http://www.w3.org/2000/svg" xmlns:xlink="http://www.w3.org/1999/xlink">
<g id="graph0" class="graph" transform="scale(1 1) rotate(0) translate(4 472)">
<polygon fill="white" stroke="transparent" points="-4,4 -4,-472 757.84,-472 757.84,4 -4,4"/>
<!-- desc_set -->
<g id="node1" class="node">
<title>desc_set</title>
<g id="a_node1"><a xlink:href="https://www.khronos.org/registry/vulkan/specs/1.2-extensions/man/html/VkDescriptorSet.html" xlink:title="VkDescriptorSet">
<polygon fill="none" stroke="green" points="297.59,-108 205.59,-108 205.59,-72 297.59,-72 297.59,-108"/>
<text text-anchor="start" x="213.59" y="-87.3" font-family="Times,serif" text-decoration="underline" font-size="14.00" fill="blue">Descriptor set</text>
</a>
</g>
</g>
<!-- bind_desc_sets -->
<g id="node17" class="node">
<title>bind_desc_sets</title>
<g id="a_node17"><a xlink:href="https://www.khronos.org/registry/vulkan/specs/1.2-extensions/man/html/vkCmdBindDescriptorSets.html" xlink:title="vkCmdBindDescriptorSets()">
<ellipse fill="none" stroke="purple" cx="508.59" cy="-18" rx="123.48" ry="18"/>
<text text-anchor="start" x="421.59" y="-15.3" font-family="Times,serif" text-decoration="underline" font-size="14.00" fill="blue">Command: Bind descriptor sets</text>
</a>
</g>
</g>
<!-- desc_set&#45;&gt;bind_desc_sets -->
<g id="edge22" class="edge">
<title>desc_set&#45;&gt;bind_desc_sets</title>
<path fill="none" stroke="black" d="M297.83,-76.4C338.36,-65.37 397.72,-49.2 443.12,-36.83"/>
<polygon fill="black" stroke="black" points="444.15,-40.18 452.88,-34.18 442.31,-33.43 444.15,-40.18"/>
</g>
<!-- desc_pool -->
<g id="node2" class="node">
<title>desc_pool</title>
<g id="a_node2"><a xlink:href="https://www.khronos.org/registry/vulkan/specs/1.2-extensions/man/html/VkDescriptorPool.html" xlink:title="VkDescriptorPool">
<polygon fill="none" stroke="green" points="144.09,-396 43.09,-396 43.09,-360 144.09,-360 144.09,-396"/>
<text text-anchor="start" x="51.09" y="-375.3" font-family="Times,serif" text-decoration="underline" font-size="14.00" fill="blue">Descriptor pool</text>
</a>
</g>
</g>
<!-- alloc_desc_sets -->
<g id="node11" class="node">
<title>alloc_desc_sets</title>
<g id="a_node11"><a xlink:href="https://www.khronos.org/registry/vulkan/specs/1.2-extensions/man/html/vkAllocateDescriptorSets.html" xlink:title="vkAllocateDescriptorSets()">
<ellipse fill="none" stroke="purple" cx="93.59" cy="-306" rx="93.68" ry="18"/>
<text text-anchor="start" x="29.59" y="-303.3" font-family="Times,serif" text-decoration="underline" font-size="14.00" fill="blue">Allocate descriptor sets</text>
</a>
</g>
</g>
<!-- desc_pool&#45;&gt;alloc_desc_sets -->
<g id="edge2" class="edge">
<title>desc_pool&#45;&gt;alloc_desc_sets</title>
<path fill="none" stroke="black" d="M93.59,-359.7C93.59,-351.98 93.59,-342.71 93.59,-334.11"/>
<polygon fill="black" stroke="black" points="97.09,-334.1 93.59,-324.1 90.09,-334.1 97.09,-334.1"/>
</g>
<!-- desc_set_layout -->
<g id="node3" class="node">
<title>desc_set_layout</title>
<g id="a_node3"><a xlink:href="https://www.khronos.org/registry/vulkan/specs/1.2-extensions/man/html/VkDescriptorSetLayout.html" xlink:title="VkDescriptorSetLayout">
<polygon fill="none" stroke="green" points="471.59,-396 341.59,-396 341.59,-360 471.59,-360 471.59,-396"/>
<text text-anchor="start" x="349.59" y="-375.3" font-family="Times,serif" text-decoration="underline" font-size="14.00" fill="blue">Descriptor set layout</text>
</a>
</g>
</g>
<!-- desc_set_layout&#45;&gt;alloc_desc_sets -->
<g id="edge4" class="edge">
<title>desc_set_layout&#45;&gt;alloc_desc_sets</title>
<path fill="none" stroke="black" d="M341.36,-362.41C288.93,-350.69 215.49,-334.26 162.19,-322.34"/>
<polygon fill="black" stroke="black" points="162.67,-318.86 152.14,-320.09 161.14,-325.69 162.67,-318.86"/>
</g>
<!-- create_pipe_layout -->
<g id="node15" class="node">
<title>create_pipe_layout</title>
<g id="a_node15"><a xlink:href="https://www.khronos.org/registry/vulkan/specs/1.2-extensions/man/html/vkCreatePipelineLayout.html" xlink:title="vkCreatePipelineLayout()">
<ellipse fill="none" stroke="purple" cx="643.59" cy="-306" rx="89.08" ry="18"/>
<text text-anchor="start" x="583.09" y="-303.3" font-family="Times,serif" text-decoration="underline" font-size="14.00" fill="blue">Create pipeline layout</text>
</a>
</g>
</g>
<!-- desc_set_layout&#45;&gt;create_pipe_layout -->
<g id="edge19" class="edge">
<title>desc_set_layout&#45;&gt;create_pipe_layout</title>
<path fill="none" stroke="black" d="M464.27,-359.97C501.12,-349.08 548.74,-335.02 585.64,-324.12"/>
<polygon fill="black" stroke="black" points="586.67,-327.46 595.27,-321.27 584.68,-320.75 586.67,-327.46"/>
</g>
<!-- create_desc_update_templ -->
<g id="node16" class="node">
<title>create_desc_update_templ</title>
<g id="a_node16"><a xlink:href="https://www.khronos.org/registry/vulkan/specs/1.2-extensions/man/html/vkCreateDescriptorUpdateTemplate.html" xlink:title="vkCreateDescriptorUpdateTemplate()">
<ellipse fill="none" stroke="purple" cx="406.59" cy="-306" rx="129.98" ry="18"/>
<text text-anchor="start" x="314.59" y="-303.3" font-family="Times,serif" text-decoration="underline" font-size="14.00" fill="blue">Create descriptor update template</text>
</a>
</g>
</g>
<!-- desc_set_layout&#45;&gt;create_desc_update_templ -->
<g id="edge15" class="edge">
<title>desc_set_layout&#45;&gt;create_desc_update_templ</title>
<path fill="none" stroke="black" d="M406.59,-359.7C406.59,-351.98 406.59,-342.71 406.59,-334.11"/>
<polygon fill="black" stroke="black" points="410.09,-334.1 406.59,-324.1 403.09,-334.1 410.09,-334.1"/>
</g>
<!-- pipe_layout -->
<g id="node4" class="node">
<title>pipe_layout</title>
<g id="a_node4"><a xlink:href="https://www.khronos.org/registry/vulkan/specs/1.2-extensions/man/html/VkPipelineLayout.html" xlink:title="VkPipelineLayout">
<polygon fill="none" stroke="green" points="692.59,-252 594.59,-252 594.59,-216 692.59,-216 692.59,-252"/>
<text text-anchor="start" x="602.59" y="-231.3" font-family="Times,serif" text-decoration="underline" font-size="14.00" fill="blue">Pipeline layout</text>
</a>
</g>
</g>
<!-- pipe_layout&#45;&gt;bind_desc_sets -->
<g id="edge21" class="edge">
<title>pipe_layout&#45;&gt;bind_desc_sets</title>
<path fill="none" stroke="black" d="M692.68,-220.46C713.39,-212.47 735.47,-199.78 747.59,-180 755.95,-166.36 755.88,-157.69 747.59,-144 712.3,-85.71 639.91,-53.3 584,-36.18"/>
<polygon fill="black" stroke="black" points="584.7,-32.74 574.12,-33.26 582.71,-39.45 584.7,-32.74"/>
</g>
<!-- push_consts -->
<g id="node18" class="node">
<title>push_consts</title>
<g id="a_node18"><a xlink:href="https://www.khronos.org/registry/vulkan/specs/1.2-extensions/man/html/vkCmdPushConstants.html" xlink:title="vkCmdPushConstants()">
<ellipse fill="none" stroke="purple" cx="633.59" cy="-162" rx="105.08" ry="18"/>
<text text-anchor="start" x="560.59" y="-159.3" font-family="Times,serif" text-decoration="underline" font-size="14.00" fill="blue">Command: Push constants</text>
</a>
</g>
</g>
<!-- pipe_layout&#45;&gt;push_consts -->
<g id="edge23" class="edge">
<title>pipe_layout&#45;&gt;push_consts</title>
<path fill="none" stroke="black" d="M641.12,-215.7C640.02,-207.98 638.69,-198.71 637.46,-190.11"/>
<polygon fill="black" stroke="black" points="640.91,-189.51 636.04,-180.1 633.98,-190.5 640.91,-189.51"/>
</g>
<!-- desc_update_templ -->
<g id="node5" class="node">
<title>desc_update_templ</title>
<g id="a_node5"><a xlink:href="https://www.khronos.org/registry/vulkan/specs/1.2-extensions/man/html/VkDescriptorUpdateTemplate.html" xlink:title="VkDescriptorUpdateTemplate">
<polygon fill="none" stroke="green" points="571.59,-252 407.59,-252 407.59,-216 571.59,-216 571.59,-252"/>
<text text-anchor="start" x="415.59" y="-231.3" font-family="Times,serif" text-decoration="underline" font-size="14.00" fill="blue">Descriptor update template</text>
</a>
</g>
</g>
<!-- update_desc_set_w_templ -->
<g id="node14" class="node">
<title>update_desc_set_w_templ</title>
<g id="a_node14"><a xlink:href="https://www.khronos.org/registry/vulkan/specs/1.2-extensions/man/html/vkUpdateDescriptorSetWithTemplate.html" xlink:title="vkUpdateDescriptorSetWithTemplate()">
<ellipse fill="none" stroke="purple" cx="373.59" cy="-162" rx="137.28" ry="18"/>
<text text-anchor="start" x="276.09" y="-159.3" font-family="Times,serif" text-decoration="underline" font-size="14.00" fill="blue">Update descriptor set with template</text>
</a>
</g>
</g>
<!-- desc_update_templ&#45;&gt;update_desc_set_w_templ -->
<g id="edge17" class="edge">
<title>desc_update_templ&#45;&gt;update_desc_set_w_templ</title>
<path fill="none" stroke="black" d="M461.21,-215.88C445.82,-206.59 426.62,-195 410.12,-185.04"/>
<polygon fill="black" stroke="black" points="411.65,-181.88 401.28,-179.71 408.03,-187.87 411.65,-181.88"/>
</g>
<!-- buff -->
<g id="node6" class="node">
<title>buff</title>
<g id="a_node6"><a xlink:href="https://www.khronos.org/registry/vulkan/specs/1.2-extensions/man/html/VkBuffer.html" xlink:title="VkBuffer">
<polygon fill="none" stroke="green" points="389.59,-252 335.59,-252 335.59,-216 389.59,-216 389.59,-252"/>
<text text-anchor="start" x="344.59" y="-231.3" font-family="Times,serif" text-decoration="underline" font-size="14.00" fill="blue">Buffer</text>
</a>
</g>
</g>
<!-- update_desc_sets -->
<g id="node13" class="node">
<title>update_desc_sets</title>
<g id="a_node13"><a xlink:href="https://www.khronos.org/registry/vulkan/specs/1.2-extensions/man/html/vkUpdateDescriptorSets.html" xlink:title="vkUpdateDescriptorSets()">
<ellipse fill="none" stroke="purple" cx="129.59" cy="-162" rx="89.08" ry="18"/>
<text text-anchor="start" x="69.09" y="-159.3" font-family="Times,serif" text-decoration="underline" font-size="14.00" fill="blue">Update descriptor sets</text>
</a>
</g>
</g>
<!-- buff&#45;&gt;update_desc_sets -->
<g id="edge6" class="edge">
<title>buff&#45;&gt;update_desc_sets</title>
<path fill="none" stroke="black" d="M335.32,-219.86C332.08,-218.47 328.78,-217.16 325.59,-216 283.6,-200.8 235.18,-187.66 196.96,-178.27"/>
<polygon fill="black" stroke="black" points="197.52,-174.81 186.98,-175.85 195.87,-181.61 197.52,-174.81"/>
</g>
<!-- buff&#45;&gt;update_desc_set_w_templ -->
<g id="edge10" class="edge">
<title>buff&#45;&gt;update_desc_set_w_templ</title>
<path fill="none" stroke="black" d="M365.31,-215.7C366.52,-207.98 367.98,-198.71 369.33,-190.11"/>
<polygon fill="black" stroke="black" points="372.81,-190.53 370.9,-180.1 365.89,-189.44 372.81,-190.53"/>
</g>
<!-- buff_view -->
<g id="node7" class="node">
<title>buff_view</title>
<g id="a_node7"><a xlink:href="https://www.khronos.org/registry/vulkan/specs/1.2-extensions/man/html/VkBufferView.html" xlink:title="VkBufferView">
<polygon fill="none" stroke="green" points="137.59,-252 55.59,-252 55.59,-216 137.59,-216 137.59,-252"/>
<text text-anchor="start" x="63.59" y="-231.3" font-family="Times,serif" text-decoration="underline" font-size="14.00" fill="blue">Buffer view</text>
</a>
</g>
</g>
<!-- buff_view&#45;&gt;update_desc_sets -->
<g id="edge7" class="edge">
<title>buff_view&#45;&gt;update_desc_sets</title>
<path fill="none" stroke="black" d="M104.75,-215.7C108.51,-207.73 113.04,-198.1 117.21,-189.26"/>
<polygon fill="black" stroke="black" points="120.43,-190.64 121.53,-180.1 114.1,-187.66 120.43,-190.64"/>
</g>
<!-- buff_view&#45;&gt;update_desc_set_w_templ -->
<g id="edge11" class="edge">
<title>buff_view&#45;&gt;update_desc_set_w_templ</title>
<path fill="none" stroke="black" d="M137.69,-218.67C140.69,-217.73 143.68,-216.83 146.59,-216 194.96,-202.17 249.89,-189.27 293.59,-179.66"/>
<polygon fill="black" stroke="black" points="294.57,-183.03 303.59,-177.48 293.07,-176.19 294.57,-183.03"/>
</g>
<!-- sampler -->
<g id="node8" class="node">
<title>sampler</title>
<g id="a_node8"><a xlink:href="https://www.khronos.org/registry/vulkan/specs/1.2-extensions/man/html/VkSampler.html" xlink:title="VkSampler">
<polygon fill="none" stroke="green" points="217.59,-252 155.59,-252 155.59,-216 217.59,-216 217.59,-252"/>
<text text-anchor="start" x="163.59" y="-231.3" font-family="Times,serif" text-decoration="underline" font-size="14.00" fill="blue">Sampler</text>
</a>
</g>
</g>
<!-- sampler&#45;&gt;update_desc_sets -->
<g id="edge8" class="edge">
<title>sampler&#45;&gt;update_desc_sets</title>
<path fill="none" stroke="black" d="M172.5,-215.7C165.67,-207.3 157.33,-197.07 149.84,-187.86"/>
<polygon fill="black" stroke="black" points="152.55,-185.65 143.52,-180.1 147.12,-190.07 152.55,-185.65"/>
</g>
<!-- sampler&#45;&gt;update_desc_set_w_templ -->
<g id="edge12" class="edge">
<title>sampler&#45;&gt;update_desc_set_w_templ</title>
<path fill="none" stroke="black" d="M217.97,-219.47C220.87,-218.28 223.78,-217.1 226.59,-216 256.41,-204.3 290,-192.12 317.53,-182.39"/>
<polygon fill="black" stroke="black" points="318.73,-185.67 327,-179.05 316.4,-179.07 318.73,-185.67"/>
</g>
<!-- img_view -->
<g id="node9" class="node">
<title>img_view</title>
<g id="a_node9"><a xlink:href="https://www.khronos.org/registry/vulkan/specs/1.2-extensions/man/html/VkImageView.html" xlink:title="VkImageView">
<polygon fill="none" stroke="green" points="317.09,-252 236.09,-252 236.09,-216 317.09,-216 317.09,-252"/>
<text text-anchor="start" x="244.09" y="-231.3" font-family="Times,serif" text-decoration="underline" font-size="14.00" fill="blue">Image view</text>
</a>
</g>
</g>
<!-- img_view&#45;&gt;update_desc_sets -->
<g id="edge9" class="edge">
<title>img_view&#45;&gt;update_desc_sets</title>
<path fill="none" stroke="black" d="M240.63,-215.88C219.81,-205.96 193.49,-193.43 171.7,-183.05"/>
<polygon fill="black" stroke="black" points="173.2,-179.89 162.67,-178.75 170.19,-186.21 173.2,-179.89"/>
</g>
<!-- img_view&#45;&gt;update_desc_set_w_templ -->
<g id="edge13" class="edge">
<title>img_view&#45;&gt;update_desc_set_w_templ</title>
<path fill="none" stroke="black" d="M300.57,-215.7C313,-206.73 328.34,-195.66 341.74,-185.98"/>
<polygon fill="black" stroke="black" points="344.16,-188.55 350.22,-179.86 340.07,-182.88 344.16,-188.55"/>
</g>
<!-- create_desc_pool -->
<g id="node10" class="node">
<title>create_desc_pool</title>
<g id="a_node10"><a xlink:href="https://www.khronos.org/registry/vulkan/specs/1.2-extensions/man/html/vkCreateDescriptorPool.html" xlink:title="vkCreateDescriptorPool()">
<ellipse fill="none" stroke="purple" cx="93.59" cy="-450" rx="89.08" ry="18"/>
<text text-anchor="start" x="33.09" y="-447.3" font-family="Times,serif" text-decoration="underline" font-size="14.00" fill="blue">Create descriptor pool</text>
</a>
</g>
</g>
<!-- create_desc_pool&#45;&gt;desc_pool -->
<g id="edge1" class="edge">
<title>create_desc_pool&#45;&gt;desc_pool</title>
<path fill="none" stroke="black" d="M93.59,-431.7C93.59,-423.98 93.59,-414.71 93.59,-406.11"/>
<polygon fill="none" stroke="black" points="97.09,-406.1 93.59,-396.1 90.09,-406.1 97.09,-406.1"/>
</g>
<!-- alloc_desc_sets&#45;&gt;desc_set -->
<g id="edge5" class="edge">
<title>alloc_desc_sets&#45;&gt;desc_set</title>
<path fill="none" stroke="black" d="M74.45,-288.13C64.68,-278.49 53.44,-265.63 46.59,-252 24.84,-208.69 1.6,-182.07 31.59,-144 51.6,-118.6 136.84,-103.95 195.15,-96.73"/>
<polygon fill="none" stroke="black" points="195.83,-100.17 205.35,-95.51 195,-93.22 195.83,-100.17"/>
</g>
<!-- create_desc_set_layout -->
<g id="node12" class="node">
<title>create_desc_set_layout</title>
<g id="a_node12"><a xlink:href="https://www.khronos.org/registry/vulkan/specs/1.2-extensions/man/html/vkCreateDescriptorSetLayout.html" xlink:title="vkCreateDescriptorSetLayout()">
<ellipse fill="none" stroke="purple" cx="406.59" cy="-450" rx="107.78" ry="18"/>
<text text-anchor="start" x="331.59" y="-447.3" font-family="Times,serif" text-decoration="underline" font-size="14.00" fill="blue">Create descriptor set layout</text>
</a>
</g>
</g>
<!-- create_desc_set_layout&#45;&gt;desc_set_layout -->
<g id="edge3" class="edge">
<title>create_desc_set_layout&#45;&gt;desc_set_layout</title>
<path fill="none" stroke="black" d="M406.59,-431.7C406.59,-423.98 406.59,-414.71 406.59,-406.11"/>
<polygon fill="none" stroke="black" points="410.09,-406.1 406.59,-396.1 403.09,-406.1 410.09,-406.1"/>
</g>
<!-- update_desc_sets&#45;&gt;desc_set -->
<g id="edge14" class="edge">
<title>update_desc_sets&#45;&gt;desc_set</title>
<path fill="none" stroke="black" d="M157.89,-144.76C174.19,-135.41 194.92,-123.52 212.74,-113.29"/>
<polygon fill="black" stroke="black" points="214.82,-116.14 221.75,-108.12 211.33,-110.06 214.82,-116.14"/>
</g>
<!-- update_desc_set_w_templ&#45;&gt;desc_set -->
<g id="edge18" class="edge">
<title>update_desc_set_w_templ&#45;&gt;desc_set</title>
<path fill="none" stroke="black" d="M344.37,-144.23C328.16,-134.93 307.8,-123.25 290.29,-113.2"/>
<polygon fill="black" stroke="black" points="291.84,-110.06 281.42,-108.12 288.35,-116.13 291.84,-110.06"/>
</g>
<!-- create_pipe_layout&#45;&gt;pipe_layout -->
<g id="edge20" class="edge">
<title>create_pipe_layout&#45;&gt;pipe_layout</title>
<path fill="none" stroke="black" d="M643.59,-287.7C643.59,-279.98 643.59,-270.71 643.59,-262.11"/>
<polygon fill="none" stroke="black" points="647.09,-262.1 643.59,-252.1 640.09,-262.1 647.09,-262.1"/>
</g>
<!-- create_desc_update_templ&#45;&gt;desc_update_templ -->
<g id="edge16" class="edge">
<title>create_desc_update_templ&#45;&gt;desc_update_templ</title>
<path fill="none" stroke="black" d="M426.68,-288.05C437.21,-279.18 450.26,-268.17 461.75,-258.48"/>
<polygon fill="none" stroke="black" points="464.01,-261.15 469.4,-252.03 459.5,-255.8 464.01,-261.15"/>
</g>
</g>
</svg>
