<?xml version="1.0" encoding="UTF-8" standalone="no"?>
<!DOCTYPE svg PUBLIC "-//W3C//DTD SVG 1.1//EN"
 "http://www.w3.org/Graphics/SVG/1.1/DTD/svg11.dtd">
<!-- Generated by graphviz version 2.47.1 (20210417.1919)
 -->
<!-- Pages: 1 -->
<svg width="772pt" height="404pt"
 viewBox="0.00 0.00 771.50 404.00" xmlns="http://www.w3.org/2000/svg" xmlns:xlink="http://www.w3.org/1999/xlink">
<g id="graph0" class="graph" transform="scale(1 1) rotate(0) translate(4 400)">
<polygon fill="white" stroke="transparent" points="-4,4 -4,-400 767.5,-400 767.5,4 -4,4"/>
<!-- desc_set -->
<g id="node1" class="node">
<title>desc_set</title>
<polygon fill="none" stroke="black" points="413,-108 321,-108 321,-72 413,-72 413,-108"/>
<text text-anchor="middle" x="367" y="-86.3" font-family="Times,serif" font-size="14.00">Descriptor set</text>
</g>
<!-- bind_desc_sets -->
<g id="node12" class="node">
<title>bind_desc_sets</title>
<polygon fill="none" stroke="black" points="509,-36 337,-36 337,0 509,0 509,-36"/>
<text text-anchor="middle" x="423" y="-14.3" font-family="Times,serif" font-size="14.00">vkCmdBindDescriptorSets()</text>
</g>
<!-- desc_set&#45;&gt;bind_desc_sets -->
<g id="edge12" class="edge">
<title>desc_set&#45;&gt;bind_desc_sets</title>
<path fill="none" stroke="black" d="M380.84,-71.7C387.49,-63.39 395.58,-53.28 402.89,-44.14"/>
<polygon fill="black" stroke="black" points="405.8,-46.1 409.32,-36.1 400.34,-41.73 405.8,-46.1"/>
</g>
<!-- desc_pool -->
<g id="node2" class="node">
<title>desc_pool</title>
<polygon fill="none" stroke="black" points="132.5,-252 31.5,-252 31.5,-216 132.5,-216 132.5,-252"/>
<text text-anchor="middle" x="82" y="-230.3" font-family="Times,serif" font-size="14.00">Descriptor pool</text>
</g>
<!-- alloc_desc_sets -->
<g id="node7" class="node">
<title>alloc_desc_sets</title>
<polygon fill="none" stroke="black" points="164,-180 0,-180 0,-144 164,-144 164,-180"/>
<text text-anchor="middle" x="82" y="-158.3" font-family="Times,serif" font-size="14.00">vkAllocateDescriptorSets()</text>
</g>
<!-- desc_pool&#45;&gt;alloc_desc_sets -->
<g id="edge2" class="edge">
<title>desc_pool&#45;&gt;alloc_desc_sets</title>
<path fill="none" stroke="black" d="M82,-215.7C82,-207.98 82,-198.71 82,-190.11"/>
<polygon fill="black" stroke="black" points="85.5,-190.1 82,-180.1 78.5,-190.1 85.5,-190.1"/>
</g>
<!-- desc_set_layout -->
<g id="node3" class="node">
<title>desc_set_layout</title>
<polygon fill="none" stroke="black" points="543,-252 413,-252 413,-216 543,-216 543,-252"/>
<text text-anchor="middle" x="478" y="-230.3" font-family="Times,serif" font-size="14.00">Descriptor set layout</text>
</g>
<!-- desc_set_layout&#45;&gt;alloc_desc_sets -->
<g id="edge5" class="edge">
<title>desc_set_layout&#45;&gt;alloc_desc_sets</title>
<path fill="none" stroke="black" d="M412.81,-221.92C353.26,-211.74 262.49,-196.08 174.24,-180.21"/>
<polygon fill="black" stroke="black" points="174.79,-176.76 164.33,-178.43 173.55,-183.65 174.79,-176.76"/>
</g>
<!-- create_pipe_layout -->
<g id="node11" class="node">
<title>create_pipe_layout</title>
<polygon fill="none" stroke="black" points="763.5,-180 606.5,-180 606.5,-144 763.5,-144 763.5,-180"/>
<text text-anchor="middle" x="685" y="-158.3" font-family="Times,serif" font-size="14.00">vkCreatePipelineLayout()</text>
</g>
<!-- desc_set_layout&#45;&gt;create_pipe_layout -->
<g id="edge9" class="edge">
<title>desc_set_layout&#45;&gt;create_pipe_layout</title>
<path fill="none" stroke="black" d="M528.37,-215.97C557.42,-206.14 594.13,-193.73 624.71,-183.39"/>
<polygon fill="black" stroke="black" points="626.05,-186.63 634.4,-180.11 623.81,-180 626.05,-186.63"/>
</g>
<!-- desc_set_layout_bind -->
<g id="node4" class="node">
<title>desc_set_layout_bind</title>
<polygon fill="none" stroke="black" points="565.5,-396 390.5,-396 390.5,-360 565.5,-360 565.5,-396"/>
<text text-anchor="middle" x="478" y="-374.3" font-family="Times,serif" font-size="14.00">Descriptor set layout binding</text>
</g>
<!-- create_desc_set_layout -->
<g id="node8" class="node">
<title>create_desc_set_layout</title>
<polygon fill="none" stroke="black" points="571.5,-324 384.5,-324 384.5,-288 571.5,-288 571.5,-324"/>
<text text-anchor="middle" x="478" y="-302.3" font-family="Times,serif" font-size="14.00">vkCreateDescriptorSetLayout()</text>
</g>
<!-- desc_set_layout_bind&#45;&gt;create_desc_set_layout -->
<g id="edge3" class="edge">
<title>desc_set_layout_bind&#45;&gt;create_desc_set_layout</title>
<path fill="none" stroke="black" d="M478,-359.7C478,-351.98 478,-342.71 478,-334.11"/>
<polygon fill="black" stroke="black" points="481.5,-334.1 478,-324.1 474.5,-334.1 481.5,-334.1"/>
</g>
<!-- pipe_layout -->
<g id="node5" class="node">
<title>pipe_layout</title>
<polygon fill="none" stroke="black" points="631,-108 533,-108 533,-72 631,-72 631,-108"/>
<text text-anchor="middle" x="582" y="-86.3" font-family="Times,serif" font-size="14.00">Pipeline layout</text>
</g>
<!-- pipe_layout&#45;&gt;bind_desc_sets -->
<g id="edge11" class="edge">
<title>pipe_layout&#45;&gt;bind_desc_sets</title>
<path fill="none" stroke="black" d="M543.1,-71.88C521.37,-62.31 494.1,-50.3 471.04,-40.15"/>
<polygon fill="black" stroke="black" points="472.33,-36.89 461.77,-36.07 469.51,-43.3 472.33,-36.89"/>
</g>
<!-- create_desc_pool -->
<g id="node6" class="node">
<title>create_desc_pool</title>
<polygon fill="none" stroke="black" points="160,-324 4,-324 4,-288 160,-288 160,-324"/>
<text text-anchor="middle" x="82" y="-302.3" font-family="Times,serif" font-size="14.00">vkCreateDescriptorPool()</text>
</g>
<!-- create_desc_pool&#45;&gt;desc_pool -->
<g id="edge1" class="edge">
<title>create_desc_pool&#45;&gt;desc_pool</title>
<path fill="none" stroke="black" d="M82,-287.7C82,-279.98 82,-270.71 82,-262.11"/>
<polygon fill="black" stroke="black" points="85.5,-262.1 82,-252.1 78.5,-262.1 85.5,-262.1"/>
</g>
<!-- alloc_desc_sets&#45;&gt;desc_set -->
<g id="edge6" class="edge">
<title>alloc_desc_sets&#45;&gt;desc_set</title>
<path fill="none" stroke="black" d="M151.35,-143.97C200.32,-131.94 265.1,-116.03 310.83,-104.79"/>
<polygon fill="black" stroke="black" points="311.7,-108.19 320.58,-102.4 310.03,-101.39 311.7,-108.19"/>
</g>
<!-- create_desc_set_layout&#45;&gt;desc_set_layout -->
<g id="edge4" class="edge">
<title>create_desc_set_layout&#45;&gt;desc_set_layout</title>
<path fill="none" stroke="black" d="M478,-287.7C478,-279.98 478,-270.71 478,-262.11"/>
<polygon fill="black" stroke="black" points="481.5,-262.1 478,-252.1 474.5,-262.1 481.5,-262.1"/>
</g>
<!-- update_desc_sets -->
<g id="node9" class="node">
<title>update_desc_sets</title>
<polygon fill="none" stroke="black" points="340,-180 182,-180 182,-144 340,-144 340,-180"/>
<text text-anchor="middle" x="261" y="-158.3" font-family="Times,serif" font-size="14.00">vkUpdateDescriptorSets()</text>
</g>
<!-- update_desc_sets&#45;&gt;desc_set -->
<g id="edge7" class="edge">
<title>update_desc_sets&#45;&gt;desc_set</title>
<path fill="none" stroke="black" d="M286.93,-143.88C300.66,-134.81 317.71,-123.55 332.54,-113.76"/>
<polygon fill="black" stroke="black" points="334.55,-116.62 340.97,-108.19 330.7,-110.78 334.55,-116.62"/>
</g>
<!-- update_desc_set_w_templ -->
<g id="node10" class="node">
<title>update_desc_set_w_templ</title>
<polygon fill="none" stroke="black" points="588.5,-180 357.5,-180 357.5,-144 588.5,-144 588.5,-180"/>
<text text-anchor="middle" x="473" y="-158.3" font-family="Times,serif" font-size="14.00">vkUpdateDescriptorSetWithTemplate()</text>
</g>
<!-- update_desc_set_w_templ&#45;&gt;desc_set -->
<g id="edge8" class="edge">
<title>update_desc_set_w_templ&#45;&gt;desc_set</title>
<path fill="none" stroke="black" d="M447.07,-143.88C433.34,-134.81 416.29,-123.55 401.46,-113.76"/>
<polygon fill="black" stroke="black" points="403.3,-110.78 393.03,-108.19 399.45,-116.62 403.3,-110.78"/>
</g>
<!-- create_pipe_layout&#45;&gt;pipe_layout -->
<g id="edge10" class="edge">
<title>create_pipe_layout&#45;&gt;pipe_layout</title>
<path fill="none" stroke="black" d="M659.8,-143.88C646.59,-134.89 630.21,-123.76 615.89,-114.03"/>
<polygon fill="black" stroke="black" points="617.53,-110.92 607.29,-108.19 613.6,-116.71 617.53,-110.92"/>
</g>
</g>
</svg>
