<?xml version="1.0" encoding="UTF-8" standalone="no"?>
<!DOCTYPE svg PUBLIC "-//W3C//DTD SVG 1.1//EN"
 "http://www.w3.org/Graphics/SVG/1.1/DTD/svg11.dtd">
<!-- Generated by graphviz version 2.47.1 (20210417.1919)
 -->
<!-- Pages: 1 -->
<svg width="716pt" height="476pt"
 viewBox="0.00 0.00 715.63 476.00" xmlns="http://www.w3.org/2000/svg" xmlns:xlink="http://www.w3.org/1999/xlink">
<g id="graph0" class="graph" transform="scale(1 1) rotate(0) translate(4 472)">
<polygon fill="white" stroke="transparent" points="-4,4 -4,-472 711.63,-472 711.63,4 -4,4"/>
<!-- desc_set -->
<g id="node1" class="node">
<title>desc_set</title>
<g id="a_node1"><a xlink:href="https://www.khronos.org/registry/vulkan/specs/1.2-extensions/man/html/VkDescriptorSet.html" xlink:title="VkDescriptorSet">
<polygon fill="none" stroke="green" points="472.59,-108 380.59,-108 380.59,-72 472.59,-72 472.59,-108"/>
<text text-anchor="start" x="388.59" y="-87.3" font-family="Times,serif" text-decoration="underline" font-size="14.00" fill="blue">Descriptor set</text>
</a>
</g>
</g>
<!-- bind_desc_sets -->
<g id="node17" class="node">
<title>bind_desc_sets</title>
<g id="a_node17"><a xlink:href="https://www.khronos.org/registry/vulkan/specs/1.2-extensions/man/html/vkCmdBindDescriptorSets.html" xlink:title="vkCmdBindDescriptorSets()">
<ellipse fill="none" stroke="purple" cx="482.59" cy="-18" rx="123.48" ry="18"/>
<text text-anchor="start" x="395.59" y="-15.3" font-family="Times,serif" text-decoration="underline" font-size="14.00" fill="blue">Command: Bind descriptor sets</text>
</a>
</g>
</g>
<!-- desc_set&#45;&gt;bind_desc_sets -->
<g id="edge22" class="edge">
<title>desc_set&#45;&gt;bind_desc_sets</title>
<path fill="none" stroke="black" d="M440.43,-71.7C447.08,-63.39 455.17,-53.28 462.48,-44.14"/>
<polygon fill="black" stroke="black" points="465.39,-46.1 468.91,-36.1 459.93,-41.73 465.39,-46.1"/>
</g>
<!-- desc_pool -->
<g id="node2" class="node">
<title>desc_pool</title>
<g id="a_node2"><a xlink:href="https://www.khronos.org/registry/vulkan/specs/1.2-extensions/man/html/VkDescriptorPool.html" xlink:title="VkDescriptorPool">
<polygon fill="none" stroke="green" points="144.09,-396 43.09,-396 43.09,-360 144.09,-360 144.09,-396"/>
<text text-anchor="start" x="51.09" y="-375.3" font-family="Times,serif" text-decoration="underline" font-size="14.00" fill="blue">Descriptor pool</text>
</a>
</g>
</g>
<!-- alloc_desc_sets -->
<g id="node11" class="node">
<title>alloc_desc_sets</title>
<g id="a_node11"><a xlink:href="https://www.khronos.org/registry/vulkan/specs/1.2-extensions/man/html/vkAllocateDescriptorSets.html" xlink:title="vkAllocateDescriptorSets()">
<ellipse fill="none" stroke="purple" cx="93.59" cy="-306" rx="93.68" ry="18"/>
<text text-anchor="start" x="29.59" y="-303.3" font-family="Times,serif" text-decoration="underline" font-size="14.00" fill="blue">Allocate descriptor sets</text>
</a>
</g>
</g>
<!-- desc_pool&#45;&gt;alloc_desc_sets -->
<g id="edge2" class="edge">
<title>desc_pool&#45;&gt;alloc_desc_sets</title>
<path fill="none" stroke="black" d="M93.59,-359.7C93.59,-351.98 93.59,-342.71 93.59,-334.11"/>
<polygon fill="black" stroke="black" points="97.09,-334.1 93.59,-324.1 90.09,-334.1 97.09,-334.1"/>
</g>
<!-- desc_set_layout -->
<g id="node3" class="node">
<title>desc_set_layout</title>
<g id="a_node3"><a xlink:href="https://www.khronos.org/registry/vulkan/specs/1.2-extensions/man/html/VkDescriptorSetLayout.html" xlink:title="VkDescriptorSetLayout">
<polygon fill="none" stroke="green" points="400.59,-396 270.59,-396 270.59,-360 400.59,-360 400.59,-396"/>
<text text-anchor="start" x="278.59" y="-375.3" font-family="Times,serif" text-decoration="underline" font-size="14.00" fill="blue">Descriptor set layout</text>
</a>
</g>
</g>
<!-- desc_set_layout&#45;&gt;alloc_desc_sets -->
<g id="edge4" class="edge">
<title>desc_set_layout&#45;&gt;alloc_desc_sets</title>
<path fill="none" stroke="black" d="M276.7,-359.97C239.2,-349.12 190.78,-335.11 153.15,-324.23"/>
<polygon fill="black" stroke="black" points="153.91,-320.8 143.33,-321.39 151.97,-327.53 153.91,-320.8"/>
</g>
<!-- create_pipe_layout -->
<g id="node15" class="node">
<title>create_pipe_layout</title>
<g id="a_node15"><a xlink:href="https://www.khronos.org/registry/vulkan/specs/1.2-extensions/man/html/vkCreatePipelineLayout.html" xlink:title="vkCreatePipelineLayout()">
<ellipse fill="none" stroke="purple" cx="618.59" cy="-306" rx="89.08" ry="18"/>
<text text-anchor="start" x="558.09" y="-303.3" font-family="Times,serif" text-decoration="underline" font-size="14.00" fill="blue">Create pipeline layout</text>
</a>
</g>
</g>
<!-- desc_set_layout&#45;&gt;create_pipe_layout -->
<g id="edge19" class="edge">
<title>desc_set_layout&#45;&gt;create_pipe_layout</title>
<path fill="none" stroke="black" d="M400.87,-360.85C447.1,-349.42 508.81,-334.15 554.72,-322.8"/>
<polygon fill="black" stroke="black" points="555.69,-326.16 564.56,-320.36 554.01,-319.37 555.69,-326.16"/>
</g>
<!-- create_desc_update_templ -->
<g id="node16" class="node">
<title>create_desc_update_templ</title>
<g id="a_node16"><a xlink:href="https://www.khronos.org/registry/vulkan/specs/1.2-extensions/man/html/vkCreateDescriptorUpdateTemplate.html" xlink:title="vkCreateDescriptorUpdateTemplate()">
<ellipse fill="none" stroke="purple" cx="335.59" cy="-306" rx="129.98" ry="18"/>
<text text-anchor="start" x="243.59" y="-303.3" font-family="Times,serif" text-decoration="underline" font-size="14.00" fill="blue">Create descriptor update template</text>
</a>
</g>
</g>
<!-- desc_set_layout&#45;&gt;create_desc_update_templ -->
<g id="edge15" class="edge">
<title>desc_set_layout&#45;&gt;create_desc_update_templ</title>
<path fill="none" stroke="black" d="M335.59,-359.7C335.59,-351.98 335.59,-342.71 335.59,-334.11"/>
<polygon fill="black" stroke="black" points="339.09,-334.1 335.59,-324.1 332.09,-334.1 339.09,-334.1"/>
</g>
<!-- pipe_layout -->
<g id="node4" class="node">
<title>pipe_layout</title>
<g id="a_node4"><a xlink:href="https://www.khronos.org/registry/vulkan/specs/1.2-extensions/man/html/VkPipelineLayout.html" xlink:title="VkPipelineLayout">
<polygon fill="none" stroke="green" points="651.59,-108 553.59,-108 553.59,-72 651.59,-72 651.59,-108"/>
<text text-anchor="start" x="561.59" y="-87.3" font-family="Times,serif" text-decoration="underline" font-size="14.00" fill="blue">Pipeline layout</text>
</a>
</g>
</g>
<!-- pipe_layout&#45;&gt;bind_desc_sets -->
<g id="edge21" class="edge">
<title>pipe_layout&#45;&gt;bind_desc_sets</title>
<path fill="none" stroke="black" d="M573.24,-71.88C557.16,-62.5 537.08,-50.79 519.91,-40.77"/>
<polygon fill="black" stroke="black" points="521.63,-37.72 511.23,-35.71 518.1,-43.77 521.63,-37.72"/>
</g>
<!-- desc_update_templ -->
<g id="node5" class="node">
<title>desc_update_templ</title>
<g id="a_node5"><a xlink:href="https://www.khronos.org/registry/vulkan/specs/1.2-extensions/man/html/VkDescriptorUpdateTemplate.html" xlink:title="VkDescriptorUpdateTemplate">
<polygon fill="none" stroke="green" points="285.59,-252 121.59,-252 121.59,-216 285.59,-216 285.59,-252"/>
<text text-anchor="start" x="129.59" y="-231.3" font-family="Times,serif" text-decoration="underline" font-size="14.00" fill="blue">Descriptor update template</text>
</a>
</g>
</g>
<!-- update_desc_set_w_templ -->
<g id="node14" class="node">
<title>update_desc_set_w_templ</title>
<g id="a_node14"><a xlink:href="https://www.khronos.org/registry/vulkan/specs/1.2-extensions/man/html/vkUpdateDescriptorSetWithTemplate.html" xlink:title="vkUpdateDescriptorSetWithTemplate()">
<ellipse fill="none" stroke="purple" cx="304.59" cy="-162" rx="137.28" ry="18"/>
<text text-anchor="start" x="207.09" y="-159.3" font-family="Times,serif" text-decoration="underline" font-size="14.00" fill="blue">Update descriptor set with template</text>
</a>
</g>
</g>
<!-- desc_update_templ&#45;&gt;update_desc_set_w_templ -->
<g id="edge17" class="edge">
<title>desc_update_templ&#45;&gt;update_desc_set_w_templ</title>
<path fill="none" stroke="black" d="M228.3,-215.88C241.36,-206.83 257.56,-195.6 271.67,-185.82"/>
<polygon fill="black" stroke="black" points="273.91,-188.52 280.14,-179.95 269.93,-182.77 273.91,-188.52"/>
</g>
<!-- buff -->
<g id="node6" class="node">
<title>buff</title>
<g id="a_node6"><a xlink:href="https://www.khronos.org/registry/vulkan/specs/1.2-extensions/man/html/VkBuffer.html" xlink:title="VkBuffer">
<polygon fill="none" stroke="green" points="537.59,-252 483.59,-252 483.59,-216 537.59,-216 537.59,-252"/>
<text text-anchor="start" x="492.59" y="-231.3" font-family="Times,serif" text-decoration="underline" font-size="14.00" fill="blue">Buffer</text>
</a>
</g>
</g>
<!-- update_desc_sets -->
<g id="node13" class="node">
<title>update_desc_sets</title>
<g id="a_node13"><a xlink:href="https://www.khronos.org/registry/vulkan/specs/1.2-extensions/man/html/vkUpdateDescriptorSets.html" xlink:title="vkUpdateDescriptorSets()">
<ellipse fill="none" stroke="purple" cx="548.59" cy="-162" rx="89.08" ry="18"/>
<text text-anchor="start" x="488.09" y="-159.3" font-family="Times,serif" text-decoration="underline" font-size="14.00" fill="blue">Update descriptor sets</text>
</a>
</g>
</g>
<!-- buff&#45;&gt;update_desc_sets -->
<g id="edge6" class="edge">
<title>buff&#45;&gt;update_desc_sets</title>
<path fill="none" stroke="black" d="M519.98,-215.7C524.36,-207.64 529.65,-197.89 534.49,-188.98"/>
<polygon fill="black" stroke="black" points="537.61,-190.56 539.31,-180.1 531.46,-187.22 537.61,-190.56"/>
</g>
<!-- buff&#45;&gt;update_desc_set_w_templ -->
<g id="edge10" class="edge">
<title>buff&#45;&gt;update_desc_set_w_templ</title>
<path fill="none" stroke="black" d="M483.25,-219.61C480.35,-218.33 477.43,-217.1 474.59,-216 440.92,-202.87 402.55,-190.68 370.79,-181.31"/>
<polygon fill="black" stroke="black" points="371.74,-177.94 361.16,-178.5 369.78,-184.66 371.74,-177.94"/>
</g>
<!-- buff_view -->
<g id="node7" class="node">
<title>buff_view</title>
<g id="a_node7"><a xlink:href="https://www.khronos.org/registry/vulkan/specs/1.2-extensions/man/html/VkBufferView.html" xlink:title="VkBufferView">
<polygon fill="none" stroke="green" points="637.59,-252 555.59,-252 555.59,-216 637.59,-216 637.59,-252"/>
<text text-anchor="start" x="563.59" y="-231.3" font-family="Times,serif" text-decoration="underline" font-size="14.00" fill="blue">Buffer view</text>
</a>
</g>
</g>
<!-- buff_view&#45;&gt;update_desc_sets -->
<g id="edge7" class="edge">
<title>buff_view&#45;&gt;update_desc_sets</title>
<path fill="none" stroke="black" d="M584.73,-215.7C579.09,-207.47 572.24,-197.48 566.02,-188.42"/>
<polygon fill="black" stroke="black" points="568.86,-186.37 560.32,-180.1 563.09,-190.33 568.86,-186.37"/>
</g>
<!-- buff_view&#45;&gt;update_desc_set_w_templ -->
<g id="edge11" class="edge">
<title>buff_view&#45;&gt;update_desc_set_w_templ</title>
<path fill="none" stroke="black" d="M555.5,-218.62C552.5,-217.7 549.51,-216.81 546.59,-216 494.87,-201.59 436.04,-188.63 389.34,-179.13"/>
<polygon fill="black" stroke="black" points="389.76,-175.65 379.26,-177.1 388.37,-182.51 389.76,-175.65"/>
</g>
<!-- sampler -->
<g id="node8" class="node">
<title>sampler</title>
<g id="a_node8"><a xlink:href="https://www.khronos.org/registry/vulkan/specs/1.2-extensions/man/html/VkSampler.html" xlink:title="VkSampler">
<polygon fill="none" stroke="green" points="365.59,-252 303.59,-252 303.59,-216 365.59,-216 365.59,-252"/>
<text text-anchor="start" x="311.59" y="-231.3" font-family="Times,serif" text-decoration="underline" font-size="14.00" fill="blue">Sampler</text>
</a>
</g>
</g>
<!-- sampler&#45;&gt;update_desc_sets -->
<g id="edge8" class="edge">
<title>sampler&#45;&gt;update_desc_sets</title>
<path fill="none" stroke="black" d="M365.81,-219.69C369.1,-218.4 372.4,-217.15 375.59,-216 412.85,-202.6 455.37,-189.55 488.92,-179.75"/>
<polygon fill="black" stroke="black" points="489.96,-183.09 498.59,-176.94 488.01,-176.37 489.96,-183.09"/>
</g>
<!-- sampler&#45;&gt;update_desc_set_w_templ -->
<g id="edge12" class="edge">
<title>sampler&#45;&gt;update_desc_set_w_templ</title>
<path fill="none" stroke="black" d="M327.18,-215.7C323.8,-207.81 319.72,-198.3 315.97,-189.55"/>
<polygon fill="black" stroke="black" points="319.08,-187.92 311.92,-180.1 312.64,-190.67 319.08,-187.92"/>
</g>
<!-- img_view -->
<g id="node9" class="node">
<title>img_view</title>
<g id="a_node9"><a xlink:href="https://www.khronos.org/registry/vulkan/specs/1.2-extensions/man/html/VkImageView.html" xlink:title="VkImageView">
<polygon fill="none" stroke="green" points="465.09,-252 384.09,-252 384.09,-216 465.09,-216 465.09,-252"/>
<text text-anchor="start" x="392.09" y="-231.3" font-family="Times,serif" text-decoration="underline" font-size="14.00" fill="blue">Image view</text>
</a>
</g>
</g>
<!-- img_view&#45;&gt;update_desc_sets -->
<g id="edge9" class="edge">
<title>img_view&#45;&gt;update_desc_sets</title>
<path fill="none" stroke="black" d="M454.93,-215.88C471.78,-206.36 492.89,-194.44 510.81,-184.33"/>
<polygon fill="black" stroke="black" points="512.86,-187.19 519.85,-179.23 509.42,-181.09 512.86,-187.19"/>
</g>
<!-- img_view&#45;&gt;update_desc_set_w_templ -->
<g id="edge13" class="edge">
<title>img_view&#45;&gt;update_desc_set_w_templ</title>
<path fill="none" stroke="black" d="M395.24,-215.88C379.16,-206.5 359.08,-194.79 341.91,-184.77"/>
<polygon fill="black" stroke="black" points="343.63,-181.72 333.23,-179.71 340.1,-187.77 343.63,-181.72"/>
</g>
<!-- create_desc_pool -->
<g id="node10" class="node">
<title>create_desc_pool</title>
<g id="a_node10"><a xlink:href="https://www.khronos.org/registry/vulkan/specs/1.2-extensions/man/html/vkCreateDescriptorPool.html" xlink:title="vkCreateDescriptorPool()">
<ellipse fill="none" stroke="purple" cx="93.59" cy="-450" rx="89.08" ry="18"/>
<text text-anchor="start" x="33.09" y="-447.3" font-family="Times,serif" text-decoration="underline" font-size="14.00" fill="blue">Create descriptor pool</text>
</a>
</g>
</g>
<!-- create_desc_pool&#45;&gt;desc_pool -->
<g id="edge1" class="edge">
<title>create_desc_pool&#45;&gt;desc_pool</title>
<path fill="none" stroke="black" d="M93.59,-431.7C93.59,-423.98 93.59,-414.71 93.59,-406.11"/>
<polygon fill="none" stroke="black" points="97.09,-406.1 93.59,-396.1 90.09,-406.1 97.09,-406.1"/>
</g>
<!-- alloc_desc_sets&#45;&gt;desc_set -->
<g id="edge5" class="edge">
<title>alloc_desc_sets&#45;&gt;desc_set</title>
<path fill="none" stroke="black" d="M94.61,-287.84C97.68,-253.59 109.91,-177.21 158.59,-144 192.36,-120.96 302.19,-104.91 370.32,-96.89"/>
<polygon fill="none" stroke="black" points="370.94,-100.35 380.47,-95.72 370.13,-93.39 370.94,-100.35"/>
</g>
<!-- create_desc_set_layout -->
<g id="node12" class="node">
<title>create_desc_set_layout</title>
<g id="a_node12"><a xlink:href="https://www.khronos.org/registry/vulkan/specs/1.2-extensions/man/html/vkCreateDescriptorSetLayout.html" xlink:title="vkCreateDescriptorSetLayout()">
<ellipse fill="none" stroke="purple" cx="335.59" cy="-450" rx="107.78" ry="18"/>
<text text-anchor="start" x="260.59" y="-447.3" font-family="Times,serif" text-decoration="underline" font-size="14.00" fill="blue">Create descriptor set layout</text>
</a>
</g>
</g>
<!-- create_desc_set_layout&#45;&gt;desc_set_layout -->
<g id="edge3" class="edge">
<title>create_desc_set_layout&#45;&gt;desc_set_layout</title>
<path fill="none" stroke="black" d="M335.59,-431.7C335.59,-423.98 335.59,-414.71 335.59,-406.11"/>
<polygon fill="none" stroke="black" points="339.09,-406.1 335.59,-396.1 332.09,-406.1 339.09,-406.1"/>
</g>
<!-- update_desc_sets&#45;&gt;desc_set -->
<g id="edge14" class="edge">
<title>update_desc_sets&#45;&gt;desc_set</title>
<path fill="none" stroke="black" d="M520.3,-144.76C503.99,-135.41 483.26,-123.52 465.45,-113.29"/>
<polygon fill="black" stroke="black" points="466.85,-110.06 456.44,-108.12 463.37,-116.14 466.85,-110.06"/>
</g>
<!-- update_desc_set_w_templ&#45;&gt;desc_set -->
<g id="edge18" class="edge">
<title>update_desc_set_w_templ&#45;&gt;desc_set</title>
<path fill="none" stroke="black" d="M333.81,-144.23C350.02,-134.93 370.38,-123.25 387.9,-113.2"/>
<polygon fill="black" stroke="black" points="389.83,-116.13 396.76,-108.12 386.35,-110.06 389.83,-116.13"/>
</g>
<!-- create_pipe_layout&#45;&gt;pipe_layout -->
<g id="edge20" class="edge">
<title>create_pipe_layout&#45;&gt;pipe_layout</title>
<path fill="none" stroke="black" d="M630.48,-287.72C636.6,-277.76 643.44,-264.73 646.59,-252 658.14,-205.41 662.89,-189.15 646.59,-144 642.84,-133.6 636.06,-123.8 628.92,-115.52"/>
<polygon fill="none" stroke="black" points="631.42,-113.06 622.07,-108.08 626.27,-117.81 631.42,-113.06"/>
</g>
<!-- create_desc_update_templ&#45;&gt;desc_update_templ -->
<g id="edge16" class="edge">
<title>create_desc_update_templ&#45;&gt;desc_update_templ</title>
<path fill="none" stroke="black" d="M304.31,-288.41C286.54,-278.99 264.08,-267.07 244.87,-256.89"/>
<polygon fill="none" stroke="black" points="246.5,-253.79 236.03,-252.2 243.22,-259.98 246.5,-253.79"/>
</g>
</g>
</svg>
