<?xml version="1.0" encoding="UTF-8" standalone="no"?>
<!DOCTYPE svg PUBLIC "-//W3C//DTD SVG 1.1//EN"
 "http://www.w3.org/Graphics/SVG/1.1/DTD/svg11.dtd">
<!-- Generated by graphviz version 2.47.1 (20210417.1919)
 -->
<!-- Pages: 1 -->
<svg width="634pt" height="620pt"
 viewBox="0.00 0.00 633.56 620.00" xmlns="http://www.w3.org/2000/svg" xmlns:xlink="http://www.w3.org/1999/xlink">
<g id="graph0" class="graph" transform="scale(1 1) rotate(0) translate(4 616)">
<polygon fill="white" stroke="transparent" points="-4,4 -4,-616 629.56,-616 629.56,4 -4,4"/>
<!-- desc_set -->
<g id="node1" class="node">
<title>desc_set</title>
<g id="a_node1"><a xlink:href="https://www.khronos.org/registry/vulkan/specs/1.2-extensions/man/html/VkDescriptorSet.html" xlink:title="VkDescriptorSet">
<polygon fill="none" stroke="green" points="337.59,-108 245.59,-108 245.59,-72 337.59,-72 337.59,-108"/>
<text text-anchor="start" x="253.59" y="-87.3" font-family="Times,serif" text-decoration="underline" font-size="14.00" fill="blue">Descriptor set</text>
</a>
</g>
</g>
<!-- bind_desc_sets -->
<g id="node17" class="node">
<title>bind_desc_sets</title>
<g id="a_node17"><a xlink:href="https://www.khronos.org/registry/vulkan/specs/1.2-extensions/man/html/vkCmdBindDescriptorSets.html" xlink:title="vkCmdBindDescriptorSets()">
<ellipse fill="none" stroke="purple" cx="396.59" cy="-18" rx="123.48" ry="18"/>
<text text-anchor="start" x="309.59" y="-15.3" font-family="Times,serif" text-decoration="underline" font-size="14.00" fill="blue">Command: Bind descriptor sets</text>
</a>
</g>
</g>
<!-- desc_set&#45;&gt;bind_desc_sets -->
<g id="edge23" class="edge">
<title>desc_set&#45;&gt;bind_desc_sets</title>
<path fill="none" stroke="black" d="M317.28,-71.88C331.08,-62.67 348.27,-51.22 363.11,-41.32"/>
<polygon fill="black" stroke="black" points="365.15,-44.16 371.53,-35.71 361.27,-38.34 365.15,-44.16"/>
</g>
<!-- desc_pool -->
<g id="node2" class="node">
<title>desc_pool</title>
<g id="a_node2"><a xlink:href="https://www.khronos.org/registry/vulkan/specs/1.2-extensions/man/html/VkDescriptorPool.html" xlink:title="VkDescriptorPool">
<polygon fill="none" stroke="green" points="144.09,-540 43.09,-540 43.09,-504 144.09,-504 144.09,-540"/>
<text text-anchor="start" x="51.09" y="-519.3" font-family="Times,serif" text-decoration="underline" font-size="14.00" fill="blue">Descriptor pool</text>
</a>
</g>
</g>
<!-- alloc_desc_sets -->
<g id="node11" class="node">
<title>alloc_desc_sets</title>
<g id="a_node11"><a xlink:href="https://www.khronos.org/registry/vulkan/specs/1.2-extensions/man/html/vkAllocateDescriptorSets.html" xlink:title="vkAllocateDescriptorSets()">
<ellipse fill="none" stroke="purple" cx="93.59" cy="-450" rx="93.68" ry="18"/>
<text text-anchor="start" x="29.59" y="-447.3" font-family="Times,serif" text-decoration="underline" font-size="14.00" fill="blue">Allocate descriptor sets</text>
</a>
</g>
</g>
<!-- desc_pool&#45;&gt;alloc_desc_sets -->
<g id="edge2" class="edge">
<title>desc_pool&#45;&gt;alloc_desc_sets</title>
<path fill="none" stroke="black" d="M93.59,-503.7C93.59,-495.98 93.59,-486.71 93.59,-478.11"/>
<polygon fill="black" stroke="black" points="97.09,-478.1 93.59,-468.1 90.09,-478.1 97.09,-478.1"/>
</g>
<!-- desc_set_layout -->
<g id="node3" class="node">
<title>desc_set_layout</title>
<g id="a_node3"><a xlink:href="https://www.khronos.org/registry/vulkan/specs/1.2-extensions/man/html/VkDescriptorSetLayout.html" xlink:title="VkDescriptorSetLayout">
<polygon fill="none" stroke="green" points="472.59,-540 342.59,-540 342.59,-504 472.59,-504 472.59,-540"/>
<text text-anchor="start" x="350.59" y="-519.3" font-family="Times,serif" text-decoration="underline" font-size="14.00" fill="blue">Descriptor set layout</text>
</a>
</g>
</g>
<!-- desc_set_layout&#45;&gt;alloc_desc_sets -->
<g id="edge4" class="edge">
<title>desc_set_layout&#45;&gt;alloc_desc_sets</title>
<path fill="none" stroke="black" d="M342.53,-506.5C289.77,-494.73 215.62,-478.2 161.98,-466.25"/>
<polygon fill="black" stroke="black" points="162.74,-462.83 152.22,-464.07 161.21,-469.66 162.74,-462.83"/>
</g>
<!-- create_pipe_layout -->
<g id="node15" class="node">
<title>create_pipe_layout</title>
<g id="a_node15"><a xlink:href="https://www.khronos.org/registry/vulkan/specs/1.2-extensions/man/html/vkCreatePipelineLayout.html" xlink:title="vkCreatePipelineLayout()">
<ellipse fill="none" stroke="purple" cx="524.59" cy="-450" rx="89.08" ry="18"/>
<text text-anchor="start" x="464.09" y="-447.3" font-family="Times,serif" text-decoration="underline" font-size="14.00" fill="blue">Create pipeline layout</text>
</a>
</g>
</g>
<!-- desc_set_layout&#45;&gt;create_pipe_layout -->
<g id="edge20" class="edge">
<title>desc_set_layout&#45;&gt;create_pipe_layout</title>
<path fill="none" stroke="black" d="M436.21,-503.88C451.97,-494.45 471.67,-482.66 488.48,-472.61"/>
<polygon fill="black" stroke="black" points="490.69,-475.36 497.47,-467.23 487.09,-469.36 490.69,-475.36"/>
</g>
<!-- create_desc_update_templ -->
<g id="node16" class="node">
<title>create_desc_update_templ</title>
<g id="a_node16"><a xlink:href="https://www.khronos.org/registry/vulkan/specs/1.2-extensions/man/html/vkCreateDescriptorUpdateTemplate.html" xlink:title="vkCreateDescriptorUpdateTemplate()">
<ellipse fill="none" stroke="purple" cx="466.59" cy="-306" rx="129.98" ry="18"/>
<text text-anchor="start" x="374.59" y="-303.3" font-family="Times,serif" text-decoration="underline" font-size="14.00" fill="blue">Create descriptor update template</text>
</a>
</g>
</g>
<!-- desc_set_layout&#45;&gt;create_desc_update_templ -->
<g id="edge15" class="edge">
<title>desc_set_layout&#45;&gt;create_desc_update_templ</title>
<path fill="none" stroke="black" d="M410.73,-503.82C414.15,-485.8 420.01,-456.73 426.59,-432 435.7,-397.75 448.51,-358.96 457.16,-333.8"/>
<polygon fill="black" stroke="black" points="460.51,-334.82 460.48,-324.23 453.9,-332.53 460.51,-334.82"/>
</g>
<!-- pipe_layout -->
<g id="node4" class="node">
<title>pipe_layout</title>
<g id="a_node4"><a xlink:href="https://www.khronos.org/registry/vulkan/specs/1.2-extensions/man/html/VkPipelineLayout.html" xlink:title="VkPipelineLayout">
<polygon fill="none" stroke="green" points="573.59,-396 475.59,-396 475.59,-360 573.59,-360 573.59,-396"/>
<text text-anchor="start" x="483.59" y="-375.3" font-family="Times,serif" text-decoration="underline" font-size="14.00" fill="blue">Pipeline layout</text>
</a>
</g>
</g>
<!-- pipe_layout&#45;&gt;create_desc_update_templ -->
<g id="edge16" class="edge">
<title>pipe_layout&#45;&gt;create_desc_update_templ</title>
<path fill="none" stroke="black" d="M510.25,-359.7C503.3,-351.3 494.82,-341.07 487.19,-331.86"/>
<polygon fill="black" stroke="black" points="489.84,-329.57 480.76,-324.1 484.45,-334.04 489.84,-329.57"/>
</g>
<!-- pipe_layout&#45;&gt;bind_desc_sets -->
<g id="edge22" class="edge">
<title>pipe_layout&#45;&gt;bind_desc_sets</title>
<path fill="none" stroke="black" d="M563.38,-359.83C578.72,-351.18 595.14,-339.25 605.59,-324 628.46,-290.64 624.59,-275.45 624.59,-235 624.59,-235 624.59,-235 624.59,-161 624.59,-90.25 544.52,-53.49 479.28,-35.27"/>
<polygon fill="black" stroke="black" points="479.92,-31.82 469.36,-32.61 478.11,-38.59 479.92,-31.82"/>
</g>
<!-- desc_update_templ -->
<g id="node5" class="node">
<title>desc_update_templ</title>
<g id="a_node5"><a xlink:href="https://www.khronos.org/registry/vulkan/specs/1.2-extensions/man/html/VkDescriptorUpdateTemplate.html" xlink:title="VkDescriptorUpdateTemplate">
<polygon fill="none" stroke="green" points="596.59,-252 432.59,-252 432.59,-216 596.59,-216 596.59,-252"/>
<text text-anchor="start" x="440.59" y="-231.3" font-family="Times,serif" text-decoration="underline" font-size="14.00" fill="blue">Descriptor update template</text>
</a>
</g>
</g>
<!-- update_desc_set_w_templ -->
<g id="node14" class="node">
<title>update_desc_set_w_templ</title>
<g id="a_node14"><a xlink:href="https://www.khronos.org/registry/vulkan/specs/1.2-extensions/man/html/vkUpdateDescriptorSetWithTemplate.html" xlink:title="vkUpdateDescriptorSetWithTemplate()">
<ellipse fill="none" stroke="purple" cx="413.59" cy="-162" rx="137.28" ry="18"/>
<text text-anchor="start" x="316.09" y="-159.3" font-family="Times,serif" text-decoration="underline" font-size="14.00" fill="blue">Update descriptor set with template</text>
</a>
</g>
</g>
<!-- desc_update_templ&#45;&gt;update_desc_set_w_templ -->
<g id="edge18" class="edge">
<title>desc_update_templ&#45;&gt;update_desc_set_w_templ</title>
<path fill="none" stroke="black" d="M489.88,-215.88C476.83,-206.83 460.62,-195.6 446.51,-185.82"/>
<polygon fill="black" stroke="black" points="448.26,-182.77 438.04,-179.95 444.27,-188.52 448.26,-182.77"/>
</g>
<!-- buff -->
<g id="node6" class="node">
<title>buff</title>
<g id="a_node6"><a xlink:href="https://www.khronos.org/registry/vulkan/specs/1.2-extensions/man/html/VkBuffer.html" xlink:title="VkBuffer">
<polygon fill="none" stroke="green" points="134.59,-252 80.59,-252 80.59,-216 134.59,-216 134.59,-252"/>
<text text-anchor="start" x="89.59" y="-231.3" font-family="Times,serif" text-decoration="underline" font-size="14.00" fill="blue">Buffer</text>
</a>
</g>
</g>
<!-- update_desc_sets -->
<g id="node13" class="node">
<title>update_desc_sets</title>
<g id="a_node13"><a xlink:href="https://www.khronos.org/registry/vulkan/specs/1.2-extensions/man/html/vkUpdateDescriptorSets.html" xlink:title="vkUpdateDescriptorSets()">
<ellipse fill="none" stroke="purple" cx="169.59" cy="-162" rx="89.08" ry="18"/>
<text text-anchor="start" x="109.09" y="-159.3" font-family="Times,serif" text-decoration="underline" font-size="14.00" fill="blue">Update descriptor sets</text>
</a>
</g>
</g>
<!-- buff&#45;&gt;update_desc_sets -->
<g id="edge6" class="edge">
<title>buff&#45;&gt;update_desc_sets</title>
<path fill="none" stroke="black" d="M122.92,-215.7C130.35,-207.3 139.41,-197.07 147.57,-187.86"/>
<polygon fill="black" stroke="black" points="150.43,-189.91 154.44,-180.1 145.19,-185.27 150.43,-189.91"/>
</g>
<!-- buff&#45;&gt;update_desc_set_w_templ -->
<g id="edge10" class="edge">
<title>buff&#45;&gt;update_desc_set_w_templ</title>
<path fill="none" stroke="black" d="M134.82,-219.29C137.74,-218.07 140.7,-216.95 143.59,-216 197.73,-198.21 260.04,-185.49 311.16,-176.98"/>
<polygon fill="black" stroke="black" points="311.92,-180.4 321.23,-175.33 310.79,-173.49 311.92,-180.4"/>
</g>
<!-- buff_view -->
<g id="node7" class="node">
<title>buff_view</title>
<g id="a_node7"><a xlink:href="https://www.khronos.org/registry/vulkan/specs/1.2-extensions/man/html/VkBufferView.html" xlink:title="VkBufferView">
<polygon fill="none" stroke="green" points="234.59,-252 152.59,-252 152.59,-216 234.59,-216 234.59,-252"/>
<text text-anchor="start" x="160.59" y="-231.3" font-family="Times,serif" text-decoration="underline" font-size="14.00" fill="blue">Buffer view</text>
</a>
</g>
</g>
<!-- buff_view&#45;&gt;update_desc_sets -->
<g id="edge7" class="edge">
<title>buff_view&#45;&gt;update_desc_sets</title>
<path fill="none" stroke="black" d="M187.66,-215.7C184.99,-207.9 181.77,-198.51 178.79,-189.83"/>
<polygon fill="black" stroke="black" points="182.01,-188.43 175.46,-180.1 175.39,-190.7 182.01,-188.43"/>
</g>
<!-- buff_view&#45;&gt;update_desc_set_w_templ -->
<g id="edge11" class="edge">
<title>buff_view&#45;&gt;update_desc_set_w_templ</title>
<path fill="none" stroke="black" d="M234.76,-218.91C237.75,-217.92 240.71,-216.94 243.59,-216 279.42,-204.33 319.67,-191.75 352.01,-181.78"/>
<polygon fill="black" stroke="black" points="353.25,-185.07 361.78,-178.78 351.19,-178.37 353.25,-185.07"/>
</g>
<!-- sampler -->
<g id="node8" class="node">
<title>sampler</title>
<g id="a_node8"><a xlink:href="https://www.khronos.org/registry/vulkan/specs/1.2-extensions/man/html/VkSampler.html" xlink:title="VkSampler">
<polygon fill="none" stroke="green" points="314.59,-252 252.59,-252 252.59,-216 314.59,-216 314.59,-252"/>
<text text-anchor="start" x="260.59" y="-231.3" font-family="Times,serif" text-decoration="underline" font-size="14.00" fill="blue">Sampler</text>
</a>
</g>
</g>
<!-- sampler&#45;&gt;update_desc_sets -->
<g id="edge8" class="edge">
<title>sampler&#45;&gt;update_desc_sets</title>
<path fill="none" stroke="black" d="M255.7,-215.88C240.35,-206.45 221.15,-194.66 204.78,-184.61"/>
<polygon fill="black" stroke="black" points="206.37,-181.48 196.02,-179.23 202.71,-187.44 206.37,-181.48"/>
</g>
<!-- sampler&#45;&gt;update_desc_set_w_templ -->
<g id="edge12" class="edge">
<title>sampler&#45;&gt;update_desc_set_w_templ</title>
<path fill="none" stroke="black" d="M314.73,-216.23C332.42,-206.71 354.75,-194.69 373.71,-184.48"/>
<polygon fill="black" stroke="black" points="375.56,-187.45 382.71,-179.63 372.24,-181.29 375.56,-187.45"/>
</g>
<!-- img_view -->
<g id="node9" class="node">
<title>img_view</title>
<g id="a_node9"><a xlink:href="https://www.khronos.org/registry/vulkan/specs/1.2-extensions/man/html/VkImageView.html" xlink:title="VkImageView">
<polygon fill="none" stroke="green" points="414.09,-252 333.09,-252 333.09,-216 414.09,-216 414.09,-252"/>
<text text-anchor="start" x="341.09" y="-231.3" font-family="Times,serif" text-decoration="underline" font-size="14.00" fill="blue">Image view</text>
</a>
</g>
</g>
<!-- img_view&#45;&gt;update_desc_sets -->
<g id="edge9" class="edge">
<title>img_view&#45;&gt;update_desc_sets</title>
<path fill="none" stroke="black" d="M332.8,-219C301.16,-208.14 257.04,-193.01 222.66,-181.21"/>
<polygon fill="black" stroke="black" points="223.37,-177.75 212.78,-177.82 221.1,-184.37 223.37,-177.75"/>
</g>
<!-- img_view&#45;&gt;update_desc_set_w_templ -->
<g id="edge13" class="edge">
<title>img_view&#45;&gt;update_desc_set_w_templ</title>
<path fill="none" stroke="black" d="M383.48,-215.7C388.08,-207.64 393.65,-197.89 398.74,-188.98"/>
<polygon fill="black" stroke="black" points="401.9,-190.52 403.82,-180.1 395.82,-187.05 401.9,-190.52"/>
</g>
<!-- create_desc_pool -->
<g id="node10" class="node">
<title>create_desc_pool</title>
<g id="a_node10"><a xlink:href="https://www.khronos.org/registry/vulkan/specs/1.2-extensions/man/html/vkCreateDescriptorPool.html" xlink:title="vkCreateDescriptorPool()">
<ellipse fill="none" stroke="purple" cx="93.59" cy="-594" rx="89.08" ry="18"/>
<text text-anchor="start" x="33.09" y="-591.3" font-family="Times,serif" text-decoration="underline" font-size="14.00" fill="blue">Create descriptor pool</text>
</a>
</g>
</g>
<!-- create_desc_pool&#45;&gt;desc_pool -->
<g id="edge1" class="edge">
<title>create_desc_pool&#45;&gt;desc_pool</title>
<path fill="none" stroke="black" d="M93.59,-575.7C93.59,-567.98 93.59,-558.71 93.59,-550.11"/>
<polygon fill="none" stroke="black" points="97.09,-550.1 93.59,-540.1 90.09,-550.1 97.09,-550.1"/>
</g>
<!-- alloc_desc_sets&#45;&gt;desc_set -->
<g id="edge5" class="edge">
<title>alloc_desc_sets&#45;&gt;desc_set</title>
<path fill="none" stroke="black" d="M85.29,-431.97C73.31,-405.77 52.59,-353.7 52.59,-307 52.59,-307 52.59,-307 52.59,-233 52.59,-192.55 43.37,-172.97 71.59,-144 94.03,-120.97 177.7,-105.72 235.14,-97.72"/>
<polygon fill="none" stroke="black" points="235.75,-101.17 245.18,-96.36 234.8,-94.24 235.75,-101.17"/>
</g>
<!-- create_desc_set_layout -->
<g id="node12" class="node">
<title>create_desc_set_layout</title>
<g id="a_node12"><a xlink:href="https://www.khronos.org/registry/vulkan/specs/1.2-extensions/man/html/vkCreateDescriptorSetLayout.html" xlink:title="vkCreateDescriptorSetLayout()">
<ellipse fill="none" stroke="purple" cx="407.59" cy="-594" rx="107.78" ry="18"/>
<text text-anchor="start" x="332.59" y="-591.3" font-family="Times,serif" text-decoration="underline" font-size="14.00" fill="blue">Create descriptor set layout</text>
</a>
</g>
</g>
<!-- create_desc_set_layout&#45;&gt;desc_set_layout -->
<g id="edge3" class="edge">
<title>create_desc_set_layout&#45;&gt;desc_set_layout</title>
<path fill="none" stroke="black" d="M407.59,-575.7C407.59,-567.98 407.59,-558.71 407.59,-550.11"/>
<polygon fill="none" stroke="black" points="411.09,-550.1 407.59,-540.1 404.09,-550.1 411.09,-550.1"/>
</g>
<!-- update_desc_sets&#45;&gt;desc_set -->
<g id="edge14" class="edge">
<title>update_desc_sets&#45;&gt;desc_set</title>
<path fill="none" stroke="black" d="M197.89,-144.76C214.19,-135.41 234.92,-123.52 252.74,-113.29"/>
<polygon fill="black" stroke="black" points="254.82,-116.14 261.75,-108.12 251.33,-110.06 254.82,-116.14"/>
</g>
<!-- update_desc_set_w_templ&#45;&gt;desc_set -->
<g id="edge19" class="edge">
<title>update_desc_set_w_templ&#45;&gt;desc_set</title>
<path fill="none" stroke="black" d="M384.37,-144.23C368.16,-134.93 347.8,-123.25 330.29,-113.2"/>
<polygon fill="black" stroke="black" points="331.84,-110.06 321.42,-108.12 328.35,-116.13 331.84,-110.06"/>
</g>
<!-- create_pipe_layout&#45;&gt;pipe_layout -->
<g id="edge21" class="edge">
<title>create_pipe_layout&#45;&gt;pipe_layout</title>
<path fill="none" stroke="black" d="M524.59,-431.7C524.59,-423.98 524.59,-414.71 524.59,-406.11"/>
<polygon fill="none" stroke="black" points="528.09,-406.1 524.59,-396.1 521.09,-406.1 528.09,-406.1"/>
</g>
<!-- create_desc_update_templ&#45;&gt;desc_update_templ -->
<g id="edge17" class="edge">
<title>create_desc_update_templ&#45;&gt;desc_update_templ</title>
<path fill="none" stroke="black" d="M478.21,-288.05C483.85,-279.84 490.73,-269.79 497,-260.66"/>
<polygon fill="none" stroke="black" points="499.98,-262.5 502.75,-252.28 494.2,-258.54 499.98,-262.5"/>
</g>
</g>
</svg>
