<?xml version="1.0" encoding="UTF-8" standalone="no"?>
<!DOCTYPE svg PUBLIC "-//W3C//DTD SVG 1.1//EN"
 "http://www.w3.org/Graphics/SVG/1.1/DTD/svg11.dtd">
<!-- Generated by graphviz version 2.47.1 (20210417.1919)
 -->
<!-- Pages: 1 -->
<svg width="902pt" height="332pt"
 viewBox="0.00 0.00 901.93 332.00" xmlns="http://www.w3.org/2000/svg" xmlns:xlink="http://www.w3.org/1999/xlink">
<g id="graph0" class="graph" transform="scale(1 1) rotate(0) translate(4 328)">
<polygon fill="white" stroke="transparent" points="-4,4 -4,-328 897.93,-328 897.93,4 -4,4"/>
<!-- desc_set -->
<g id="node1" class="node">
<title>desc_set</title>
<g id="a_node1"><a xlink:href="https://www.khronos.org/registry/vulkan/specs/1.2-extensions/man/html/VkDescriptorSet.html" xlink:title="VkDescriptorSet">
<polygon fill="none" stroke="green" points="503.04,-108 411.04,-108 411.04,-72 503.04,-72 503.04,-108"/>
<text text-anchor="start" x="419.04" y="-87.3" font-family="Times,serif" text-decoration="underline" font-size="14.00" fill="blue">Descriptor set</text>
</a>
</g>
</g>
<!-- bind_desc_sets -->
<g id="node15" class="node">
<title>bind_desc_sets</title>
<g id="a_node15"><a xlink:href="https://www.khronos.org/registry/vulkan/specs/1.2-extensions/man/html/vkCmdBindDescriptorSets.html" xlink:title="vkCmdBindDescriptorSets()">
<ellipse fill="none" stroke="purple" cx="513.04" cy="-18" rx="123.48" ry="18"/>
<text text-anchor="start" x="426.04" y="-15.3" font-family="Times,serif" text-decoration="underline" font-size="14.00" fill="blue">Command: Bind descriptor sets</text>
</a>
</g>
</g>
<!-- desc_set&#45;&gt;bind_desc_sets -->
<g id="edge19" class="edge">
<title>desc_set&#45;&gt;bind_desc_sets</title>
<path fill="none" stroke="black" d="M470.88,-71.7C477.53,-63.39 485.62,-53.28 492.93,-44.14"/>
<polygon fill="black" stroke="black" points="495.84,-46.1 499.36,-36.1 490.38,-41.73 495.84,-46.1"/>
</g>
<!-- desc_pool -->
<g id="node2" class="node">
<title>desc_pool</title>
<g id="a_node2"><a xlink:href="https://www.khronos.org/registry/vulkan/specs/1.2-extensions/man/html/VkDescriptorPool.html" xlink:title="VkDescriptorPool">
<polygon fill="none" stroke="green" points="625.54,-252 524.54,-252 524.54,-216 625.54,-216 625.54,-252"/>
<text text-anchor="start" x="532.54" y="-231.3" font-family="Times,serif" text-decoration="underline" font-size="14.00" fill="blue">Descriptor pool</text>
</a>
</g>
</g>
<!-- alloc_desc_sets -->
<g id="node10" class="node">
<title>alloc_desc_sets</title>
<g id="a_node10"><a xlink:href="https://www.khronos.org/registry/vulkan/specs/1.2-extensions/man/html/vkAllocateDescriptorSets.html" xlink:title="vkAllocateDescriptorSets()">
<ellipse fill="none" stroke="purple" cx="582.04" cy="-162" rx="93.68" ry="18"/>
<text text-anchor="start" x="518.04" y="-159.3" font-family="Times,serif" text-decoration="underline" font-size="14.00" fill="blue">Allocate descriptor sets</text>
</a>
</g>
</g>
<!-- desc_pool&#45;&gt;alloc_desc_sets -->
<g id="edge2" class="edge">
<title>desc_pool&#45;&gt;alloc_desc_sets</title>
<path fill="none" stroke="black" d="M576.77,-215.7C577.54,-207.98 578.47,-198.71 579.33,-190.11"/>
<polygon fill="black" stroke="black" points="582.82,-190.4 580.33,-180.1 575.85,-189.71 582.82,-190.4"/>
</g>
<!-- desc_set_layout -->
<g id="node3" class="node">
<title>desc_set_layout</title>
<g id="a_node3"><a xlink:href="https://www.khronos.org/registry/vulkan/specs/1.2-extensions/man/html/VkDescriptorSetLayout.html" xlink:title="VkDescriptorSetLayout">
<polygon fill="none" stroke="green" points="848.04,-252 718.04,-252 718.04,-216 848.04,-216 848.04,-252"/>
<text text-anchor="start" x="726.04" y="-231.3" font-family="Times,serif" text-decoration="underline" font-size="14.00" fill="blue">Descriptor set layout</text>
</a>
</g>
</g>
<!-- desc_set_layout&#45;&gt;alloc_desc_sets -->
<g id="edge4" class="edge">
<title>desc_set_layout&#45;&gt;alloc_desc_sets</title>
<path fill="none" stroke="black" d="M734.13,-215.97C704.14,-205.52 665.74,-192.15 635.03,-181.45"/>
<polygon fill="black" stroke="black" points="635.95,-178.07 625.35,-178.08 633.65,-184.68 635.95,-178.07"/>
</g>
<!-- create_pipe_layout -->
<g id="node14" class="node">
<title>create_pipe_layout</title>
<g id="a_node14"><a xlink:href="https://www.khronos.org/registry/vulkan/specs/1.2-extensions/man/html/vkCreatePipelineLayout.html" xlink:title="vkCreatePipelineLayout()">
<ellipse fill="none" stroke="purple" cx="783.04" cy="-162" rx="89.08" ry="18"/>
<text text-anchor="start" x="722.54" y="-159.3" font-family="Times,serif" text-decoration="underline" font-size="14.00" fill="blue">Create pipeline layout</text>
</a>
</g>
</g>
<!-- desc_set_layout&#45;&gt;create_pipe_layout -->
<g id="edge16" class="edge">
<title>desc_set_layout&#45;&gt;create_pipe_layout</title>
<path fill="none" stroke="black" d="M783.04,-215.7C783.04,-207.98 783.04,-198.71 783.04,-190.11"/>
<polygon fill="black" stroke="black" points="786.54,-190.1 783.04,-180.1 779.54,-190.1 786.54,-190.1"/>
</g>
<!-- pipe_layout -->
<g id="node4" class="node">
<title>pipe_layout</title>
<g id="a_node4"><a xlink:href="https://www.khronos.org/registry/vulkan/specs/1.2-extensions/man/html/VkPipelineLayout.html" xlink:title="VkPipelineLayout">
<polygon fill="none" stroke="green" points="725.04,-108 627.04,-108 627.04,-72 725.04,-72 725.04,-108"/>
<text text-anchor="start" x="635.04" y="-87.3" font-family="Times,serif" text-decoration="underline" font-size="14.00" fill="blue">Pipeline layout</text>
</a>
</g>
</g>
<!-- pipe_layout&#45;&gt;bind_desc_sets -->
<g id="edge18" class="edge">
<title>pipe_layout&#45;&gt;bind_desc_sets</title>
<path fill="none" stroke="black" d="M636.17,-71.88C613.2,-62.01 584.21,-49.56 560.13,-39.22"/>
<polygon fill="black" stroke="black" points="561.39,-35.96 550.82,-35.23 558.63,-42.39 561.39,-35.96"/>
</g>
<!-- buff -->
<g id="node5" class="node">
<title>buff</title>
<g id="a_node5"><a xlink:href="https://www.khronos.org/registry/vulkan/specs/1.2-extensions/man/html/VkBuffer.html" xlink:title="VkBuffer">
<polygon fill="none" stroke="green" points="105.04,-252 51.04,-252 51.04,-216 105.04,-216 105.04,-252"/>
<text text-anchor="start" x="60.04" y="-231.3" font-family="Times,serif" text-decoration="underline" font-size="14.00" fill="blue">Buffer</text>
</a>
</g>
</g>
<!-- update_desc_sets -->
<g id="node12" class="node">
<title>update_desc_sets</title>
<g id="a_node12"><a xlink:href="https://www.khronos.org/registry/vulkan/specs/1.2-extensions/man/html/vkUpdateDescriptorSets.html" xlink:title="vkUpdateDescriptorSets()">
<ellipse fill="none" stroke="purple" cx="89.04" cy="-162" rx="89.08" ry="18"/>
<text text-anchor="start" x="28.54" y="-159.3" font-family="Times,serif" text-decoration="underline" font-size="14.00" fill="blue">Update descriptor sets</text>
</a>
</g>
</g>
<!-- buff&#45;&gt;update_desc_sets -->
<g id="edge6" class="edge">
<title>buff&#45;&gt;update_desc_sets</title>
<path fill="none" stroke="black" d="M80.76,-215.7C81.97,-207.98 83.43,-198.71 84.78,-190.11"/>
<polygon fill="black" stroke="black" points="88.26,-190.53 86.35,-180.1 81.34,-189.44 88.26,-190.53"/>
</g>
<!-- update_desc_set_w_templ -->
<g id="node13" class="node">
<title>update_desc_set_w_templ</title>
<g id="a_node13"><a xlink:href="https://www.khronos.org/registry/vulkan/specs/1.2-extensions/man/html/vkUpdateDescriptorSetWithTemplate.html" xlink:title="vkUpdateDescriptorSetWithTemplate()">
<ellipse fill="none" stroke="purple" cx="333.04" cy="-162" rx="137.28" ry="18"/>
<text text-anchor="start" x="235.54" y="-159.3" font-family="Times,serif" text-decoration="underline" font-size="14.00" fill="blue">Update descriptor set with template</text>
</a>
</g>
</g>
<!-- buff&#45;&gt;update_desc_set_w_templ -->
<g id="edge10" class="edge">
<title>buff&#45;&gt;update_desc_set_w_templ</title>
<path fill="none" stroke="black" d="M105.32,-219.42C108.23,-218.18 111.17,-217.01 114.04,-216 157.49,-200.66 207.32,-188.22 248.46,-179.25"/>
<polygon fill="black" stroke="black" points="249.41,-182.63 258.45,-177.11 247.94,-175.79 249.41,-182.63"/>
</g>
<!-- buff_view -->
<g id="node6" class="node">
<title>buff_view</title>
<g id="a_node6"><a xlink:href="https://www.khronos.org/registry/vulkan/specs/1.2-extensions/man/html/VkBufferView.html" xlink:title="VkBufferView">
<polygon fill="none" stroke="green" points="205.04,-252 123.04,-252 123.04,-216 205.04,-216 205.04,-252"/>
<text text-anchor="start" x="131.04" y="-231.3" font-family="Times,serif" text-decoration="underline" font-size="14.00" fill="blue">Buffer view</text>
</a>
</g>
</g>
<!-- buff_view&#45;&gt;update_desc_sets -->
<g id="edge7" class="edge">
<title>buff_view&#45;&gt;update_desc_sets</title>
<path fill="none" stroke="black" d="M145.5,-215.7C136.17,-206.99 124.71,-196.29 114.56,-186.82"/>
<polygon fill="black" stroke="black" points="116.81,-184.13 107.11,-179.86 112.03,-189.24 116.81,-184.13"/>
</g>
<!-- buff_view&#45;&gt;update_desc_set_w_templ -->
<g id="edge11" class="edge">
<title>buff_view&#45;&gt;update_desc_set_w_templ</title>
<path fill="none" stroke="black" d="M205.38,-215.88C229.21,-206.01 259.3,-193.54 284.28,-183.2"/>
<polygon fill="black" stroke="black" points="285.68,-186.41 293.58,-179.35 283,-179.94 285.68,-186.41"/>
</g>
<!-- sampler -->
<g id="node7" class="node">
<title>sampler</title>
<g id="a_node7"><a xlink:href="https://www.khronos.org/registry/vulkan/specs/1.2-extensions/man/html/VkSampler.html" xlink:title="VkSampler">
<polygon fill="none" stroke="green" points="285.04,-252 223.04,-252 223.04,-216 285.04,-216 285.04,-252"/>
<text text-anchor="start" x="231.04" y="-231.3" font-family="Times,serif" text-decoration="underline" font-size="14.00" fill="blue">Sampler</text>
</a>
</g>
</g>
<!-- sampler&#45;&gt;update_desc_sets -->
<g id="edge8" class="edge">
<title>sampler&#45;&gt;update_desc_sets</title>
<path fill="none" stroke="black" d="M223.03,-219.82C220,-218.53 216.96,-217.24 214.04,-216 187.92,-204.91 158.71,-192.53 135.11,-182.52"/>
<polygon fill="black" stroke="black" points="136.26,-179.21 125.69,-178.53 133.53,-185.65 136.26,-179.21"/>
</g>
<!-- sampler&#45;&gt;update_desc_set_w_templ -->
<g id="edge12" class="edge">
<title>sampler&#45;&gt;update_desc_set_w_templ</title>
<path fill="none" stroke="black" d="M273.57,-215.7C283.5,-206.9 295.71,-196.08 306.48,-186.54"/>
<polygon fill="black" stroke="black" points="308.85,-189.11 314.01,-179.86 304.21,-183.88 308.85,-189.11"/>
</g>
<!-- img_view -->
<g id="node8" class="node">
<title>img_view</title>
<g id="a_node8"><a xlink:href="https://www.khronos.org/registry/vulkan/specs/1.2-extensions/man/html/VkImageView.html" xlink:title="VkImageView">
<polygon fill="none" stroke="green" points="384.54,-252 303.54,-252 303.54,-216 384.54,-216 384.54,-252"/>
<text text-anchor="start" x="311.54" y="-231.3" font-family="Times,serif" text-decoration="underline" font-size="14.00" fill="blue">Image view</text>
</a>
</g>
</g>
<!-- img_view&#45;&gt;update_desc_sets -->
<g id="edge9" class="edge">
<title>img_view&#45;&gt;update_desc_sets</title>
<path fill="none" stroke="black" d="M303.46,-218.92C300.29,-217.9 297.12,-216.92 294.04,-216 247.67,-202.14 194.78,-188.52 154.34,-178.56"/>
<polygon fill="black" stroke="black" points="155.15,-175.15 144.6,-176.17 153.48,-181.95 155.15,-175.15"/>
</g>
<!-- img_view&#45;&gt;update_desc_set_w_templ -->
<g id="edge13" class="edge">
<title>img_view&#45;&gt;update_desc_set_w_templ</title>
<path fill="none" stroke="black" d="M341.32,-215.7C340.11,-207.98 338.65,-198.71 337.3,-190.11"/>
<polygon fill="black" stroke="black" points="340.74,-189.44 335.73,-180.1 333.82,-190.53 340.74,-189.44"/>
</g>
<!-- create_desc_pool -->
<g id="node9" class="node">
<title>create_desc_pool</title>
<g id="a_node9"><a xlink:href="https://www.khronos.org/registry/vulkan/specs/1.2-extensions/man/html/vkCreateDescriptorPool.html" xlink:title="vkCreateDescriptorPool()">
<ellipse fill="none" stroke="purple" cx="571.04" cy="-306" rx="89.08" ry="18"/>
<text text-anchor="start" x="510.54" y="-303.3" font-family="Times,serif" text-decoration="underline" font-size="14.00" fill="blue">Create descriptor pool</text>
</a>
</g>
</g>
<!-- create_desc_pool&#45;&gt;desc_pool -->
<g id="edge1" class="edge">
<title>create_desc_pool&#45;&gt;desc_pool</title>
<path fill="none" stroke="black" d="M572.03,-287.7C572.47,-279.98 573,-270.71 573.49,-262.11"/>
<polygon fill="none" stroke="black" points="576.99,-262.29 574.06,-252.1 570,-261.89 576.99,-262.29"/>
</g>
<!-- alloc_desc_sets&#45;&gt;desc_set -->
<g id="edge5" class="edge">
<title>alloc_desc_sets&#45;&gt;desc_set</title>
<path fill="none" stroke="black" d="M553.05,-144.76C536.19,-135.32 514.72,-123.3 496.35,-113.01"/>
<polygon fill="none" stroke="black" points="498.06,-109.96 487.62,-108.12 494.64,-116.06 498.06,-109.96"/>
</g>
<!-- create_desc_set_layout -->
<g id="node11" class="node">
<title>create_desc_set_layout</title>
<g id="a_node11"><a xlink:href="https://www.khronos.org/registry/vulkan/specs/1.2-extensions/man/html/vkCreateDescriptorSetLayout.html" xlink:title="vkCreateDescriptorSetLayout()">
<ellipse fill="none" stroke="purple" cx="786.04" cy="-306" rx="107.78" ry="18"/>
<text text-anchor="start" x="711.04" y="-303.3" font-family="Times,serif" text-decoration="underline" font-size="14.00" fill="blue">Create descriptor set layout</text>
</a>
</g>
</g>
<!-- create_desc_set_layout&#45;&gt;desc_set_layout -->
<g id="edge3" class="edge">
<title>create_desc_set_layout&#45;&gt;desc_set_layout</title>
<path fill="none" stroke="black" d="M785.3,-287.7C784.97,-279.98 784.57,-270.71 784.2,-262.11"/>
<polygon fill="none" stroke="black" points="787.7,-261.95 783.78,-252.1 780.71,-262.25 787.7,-261.95"/>
</g>
<!-- update_desc_sets&#45;&gt;desc_set -->
<g id="edge14" class="edge">
<title>update_desc_sets&#45;&gt;desc_set</title>
<path fill="none" stroke="black" d="M151.47,-149.13C221.39,-135.82 333.72,-114.46 400.95,-101.67"/>
<polygon fill="black" stroke="black" points="401.77,-105.08 410.94,-99.77 400.46,-98.2 401.77,-105.08"/>
</g>
<!-- update_desc_set_w_templ&#45;&gt;desc_set -->
<g id="edge15" class="edge">
<title>update_desc_set_w_templ&#45;&gt;desc_set</title>
<path fill="none" stroke="black" d="M362.43,-144.41C378.89,-135.12 399.65,-123.4 417.53,-113.31"/>
<polygon fill="black" stroke="black" points="419.58,-116.16 426.57,-108.2 416.14,-110.07 419.58,-116.16"/>
</g>
<!-- create_pipe_layout&#45;&gt;pipe_layout -->
<g id="edge17" class="edge">
<title>create_pipe_layout&#45;&gt;pipe_layout</title>
<path fill="none" stroke="black" d="M757.96,-144.59C743.91,-135.4 726.19,-123.8 710.82,-113.75"/>
<polygon fill="none" stroke="black" points="712.37,-110.59 702.09,-108.04 708.54,-116.44 712.37,-110.59"/>
</g>
</g>
</svg>
